<svg width="36" height="36" viewBox="0 0 36 36" fill="none" xmlns="http://www.w3.org/2000/svg">
<circle cx="18" cy="18" r="17.5" fill="white" stroke="#EDEDED"/>
<path d="M25.612 11.888C25.1722 11.4479 24.65 11.0989 24.0752 10.8607C23.5005 10.6226 22.8844 10.5 22.2623 10.5C21.6401 10.5 21.0241 10.6226 20.4493 10.8607C19.8746 11.0989 19.3524 11.4479 18.9126 11.888L17.9998 12.8008L17.087 11.888C16.1986 10.9996 14.9936 10.5005 13.7372 10.5005C12.4809 10.5005 11.2759 10.9996 10.3875 11.888C9.4991 12.7764 9 13.9813 9 15.2377C9 16.4941 9.4991 17.699 10.3875 18.5874L11.3003 19.5002L17.9998 26.1997L24.6992 19.5002L25.612 18.5874C26.0521 18.1476 26.4011 17.6254 26.6393 17.0507C26.8774 16.4759 27 15.8599 27 15.2377C27 14.6156 26.8774 13.9995 26.6393 13.4248C26.4011 12.85 26.0521 12.3278 25.612 11.888Z" fill="#C4C4C4"/>
</svg>
