<svg width="320" height="443" viewBox="0 0 320 443" fill="none" xmlns="http://www.w3.org/2000/svg">
<path d="M-424.312 431.085C-495.283 461.257 -610.705 427.476 -682.114 355.632C-753.522 283.788 -753.876 201.087 -682.904 170.915L-424.312 431.085ZM-149.994 203.81L-232.03 63.1249L-149.994 203.81ZM635.626 12.1253C706.325 -18.3202 821.745 15.1464 893.423 86.875C965.101 158.604 965.894 241.432 895.194 271.878L635.626 12.1253ZM-553.608 301C-682.904 170.915 -682.886 170.908 -682.868 170.9C-682.861 170.897 -682.843 170.889 -682.829 170.883C-682.801 170.871 -682.769 170.858 -682.735 170.844C-682.667 170.815 -682.586 170.781 -682.494 170.741C-682.309 170.663 -682.075 170.565 -681.794 170.447C-681.233 170.212 -680.481 169.898 -679.544 169.512C-677.671 168.738 -675.057 167.67 -671.748 166.347C-665.135 163.702 -655.723 160.026 -643.883 155.627C-620.255 146.85 -586.667 135.089 -546.1 122.872C-466.609 98.9308 -353.464 71.1082 -232.03 63.1249L-67.9581 344.494C-153.537 350.12 -242.199 370.893 -312.762 392.145C-347.222 402.524 -375.722 412.509 -395.426 419.829C-405.251 423.478 -412.816 426.438 -417.763 428.417C-420.235 429.406 -422.047 430.147 -423.155 430.604C-423.708 430.833 -424.085 430.991 -424.28 431.072C-424.378 431.113 -424.429 431.135 -424.435 431.137C-424.438 431.138 -424.429 431.135 -424.408 431.126C-424.398 431.122 -424.385 431.116 -424.369 431.109C-424.361 431.106 -424.346 431.1 -424.342 431.098C-424.327 431.092 -424.312 431.085 -553.608 301ZM-232.03 63.1249C-105.333 54.7956 -8.24871 70.8673 70.9854 83.6147C143.196 95.2322 199.338 103.937 280.488 98.4577L445.204 379.784C316.399 388.481 218.577 372.794 138.084 359.844C64.6146 348.024 10.2567 339.352 -67.9581 344.494L-232.03 63.1249ZM280.488 98.4577C367.821 92.5609 456.365 71.7337 526.035 50.6557C560.12 40.3435 588.158 30.4455 607.475 23.2056C617.107 19.5952 624.501 16.6722 629.318 14.7241C631.725 13.7508 633.483 13.0231 634.55 12.5774C635.083 12.3546 635.443 12.2024 635.624 12.1255C635.715 12.087 635.761 12.0674 635.761 12.0672C635.761 12.0671 635.75 12.0718 635.728 12.0815C635.717 12.0863 635.702 12.0924 635.685 12.0997C635.677 12.1033 635.662 12.1097 635.658 12.1115C635.642 12.1183 635.626 12.1253 765.41 142.001C895.194 271.878 895.176 271.885 895.158 271.893C895.151 271.896 895.131 271.905 895.117 271.911C895.088 271.923 895.057 271.937 895.022 271.952C894.952 271.981 894.871 272.016 894.778 272.056C894.592 272.136 894.358 272.235 894.078 272.354C893.518 272.592 892.77 272.907 891.842 273.295C889.984 274.071 887.399 275.14 884.129 276.462C877.593 279.105 868.299 282.773 856.594 287.16C833.235 295.915 799.998 307.639 759.687 319.834C680.564 343.772 567.826 371.505 445.204 379.784L280.488 98.4577Z" fill="white"/>
</svg>
